<svg xmlns="http://www.w3.org/2000/svg" width="235" height="55" fill="none" viewBox="0 0 235 55">
  <g fill="currentColor" clip-path="url(#a)">
    <path d="M81 1.7h2.3V15h-2.5l-7.6-9.8V15H71V1.7h2.2l7.8 10v-10Zm13 12a5 5 0 0 1-3.8 1.5A5.2 5.2 0 0 1 85 9.9a5.2 5.2 0 0 1 5.4-5.3 5.2 5.2 0 0 1 5.3 5.3 5 5 0 0 1-1.5 3.8Zm-6-1.3a3 3 0 0 0 2.2.9 3 3 0 0 0 2.3-1 3.3 3.3 0 0 0 0-4.7c-.6-.7-1.4-1-2.3-1a3 3 0 0 0-2.3 1c-.6.6-.9 1.4-.9 2.4s.3 1.7 1 2.4Zm14.6-5.5c-1 0-1.9.3-2.4 1s-.8 1.6-.8 2.8V15h-2.2V4.8h2.2V7c.3-.6.8-1.2 1.4-1.6.6-.4 1.2-.6 1.9-.6V7h-.1Zm5.3-.3v5.2c0 .4.1.8.4 1.1.2.3.6.4 1 .4.5 0 1-.2 1.4-.6l.9 1.5c-.8.7-1.6 1-2.5 1-1 0-1.7-.3-2.4-1-.6-.6-1-1.4-1-2.5V6.6h-1.2V4.8h1.2V1.7h2.2v3.1h2.7v1.8h-2.7Zm7.1 2.9v5.6h-2V.8h2.1v6c.3-.7.8-1.2 1.4-1.6a4 4 0 0 1 2-.5c1.2 0 2 .4 2.8 1 .7.8 1 1.8 1 3.1v6.3h-2V9.5c0-2-.8-2.9-2.4-2.9-.7 0-1.4.3-2 .8-.5.5-.8 1.2-.8 2.1Zm22 3.5c.7 0 1.4-.1 2-.4a7 7 0 0 0 1.7-1.2l1.5 1.4a6.7 6.7 0 0 1-5.2 2.4 7 7 0 0 1-5-2c-1.4-1.3-2-3-2-5s.6-3.6 2-4.9a7 7 0 0 1 5.1-2c2.1 0 3.8.8 5.2 2.3L141 5.2a6 6 0 0 0-1.8-1.3 5 5 0 0 0-2-.3c-1.4 0-2.5.4-3.4 1.3a4 4 0 0 0-1.4 3.3c0 1.4.5 2.5 1.4 3.4.9 1 2 1.4 3.2 1.4Zm15.1 2h-2v-1.3c-.8 1-2 1.5-3.3 1.5-1 0-2-.3-2.7-1a3 3 0 0 1-1-2.3c0-1 .4-1.8 1.1-2.3.8-.5 1.8-.7 3-.7h2.8v-.4c0-1.3-.8-2-2.3-2-.9 0-1.9.3-3 1l-.9-1.3c1.3-1 2.7-1.5 4.2-1.5 1.2 0 2.2.3 3 1 .7.5 1.1 1.5 1.1 2.8V15Zm-2.1-3.7v-.9h-2.5c-1.5 0-2.3.5-2.3 1.5 0 .5.2.8.6 1 .4.4 1 .5 1.6.5.7 0 1.3-.2 1.8-.6.5-.4.8-1 .8-1.6Zm9.7-4.4c-1 0-1.9.3-2.4 1-.6.7-.8 1.6-.8 2.8V15h-2.2V4.8h2.2V7c.3-.6.8-1.2 1.4-1.6.6-.4 1.2-.6 1.9-.6V7h-.1Zm9.8 6.8c-1 1-2.3 1.5-3.8 1.5a5.2 5.2 0 0 1-5.4-5.3 5.2 5.2 0 0 1 5.4-5.3A5.2 5.2 0 0 1 171 10a5 5 0 0 1-1.5 3.8Zm-6.1-1.3a3 3 0 0 0 2.3.9 3 3 0 0 0 2.3-1c.6-.6.9-1.4.9-2.3a3 3 0 0 0-1-2.4 3 3 0 0 0-2.2-1 3 3 0 0 0-2.3 1c-.6.6-1 1.4-1 2.4s.4 1.7 1 2.4Zm11.5 2.6h-2.2V.9h2.2v14.3Zm2.4-12.2c-.3-.3-.4-.6-.4-1 0-.3.1-.6.4-.9.3-.3.6-.4 1-.4s.7.1 1 .4c.2.3.3.6.3 1 0 .3 0 .7-.4 1-.2.2-.5.3-1 .3-.3 0-.6-.1-.9-.4Zm2 12.3h-2.1V4.8h2.1v10.3Zm4.5-5.6v5.6h-2.1V4.8h2.1v2c.4-.7.9-1.2 1.5-1.6a4.2 4.2 0 0 1 4.7.5c.7.8 1 1.8 1 3.1v6.3h-2V9.5c0-2-.8-2.9-2.4-2.9-.7 0-1.4.3-2 .8-.5.5-.8 1.2-.8 2.1Zm17.8 5.5h-2v-1.3c-.8 1-2 1.5-3.4 1.5-1 0-2-.3-2.6-1a3 3 0 0 1-1-2.3c0-1 .3-1.8 1-2.3.8-.5 1.8-.7 3-.7h2.8v-.4c0-1.3-.7-2-2.2-2-1 0-2 .3-3 1l-1-1.3c1.3-1 2.7-1.5 4.3-1.5 1.2 0 2.2.3 3 1 .7.5 1 1.5 1 2.8V15Zm-2.2-3.7v-.9H197c-1.6 0-2.3.5-2.3 1.5 0 .5.2.8.5 1 .4.4 1 .5 1.7.5s1.2-.2 1.7-.6c.5-.4.8-1 .8-1.6ZM75 23.6c-.7 0-1.2 0-1.6.4-.4.2-.6.6-.6 1.2 0 .5.2 1 .6 1.2.4.3 1.3.6 2.7 1 1.4.3 2.4.7 3.1 1.3.7.6 1 1.5 1 2.7 0 1.2-.4 2.1-1.3 2.8-.9.8-2 1.1-3.4 1.1-2.1 0-4-.7-5.6-2.1l1.4-1.7a6.4 6.4 0 0 0 4.2 1.7c.7 0 1.3-.1 1.7-.4.5-.3.7-.8.7-1.3s-.2-1-.6-1.2c-.4-.3-1.1-.5-2-.8A20 20 0 0 1 73 29l-1.4-.8c-.8-.6-1.2-1.5-1.2-2.7 0-1.3.5-2.2 1.4-3 .9-.6 2-1 3.3-1a8 8 0 0 1 4.7 1.7l-1.2 1.7c-.4-.4-.9-.7-1.6-.9-.6-.2-1.3-.3-2-.3Zm11.5 11.7c-1.4 0-2.7-.5-3.7-1.4a5 5 0 0 1-1.5-3.8 5 5 0 0 1 1.6-3.8c1-1 2.3-1.5 3.9-1.5 1.5 0 2.8.6 3.9 1.6L89.4 28a4 4 0 0 0-2.6-1.2c-1 0-1.7.3-2.4 1a3 3 0 0 0-1 2.2c0 1 .4 1.8 1 2.4.7.7 1.5 1 2.4 1 1 0 1.9-.5 2.7-1.3l1.3 1.4a5.9 5.9 0 0 1-4.3 1.8Zm8.3-5.6v5.5h-2.2V21h2.2v5.8c.3-.6.7-1 1.4-1.4a4 4 0 0 1 2-.6c1.1 0 2 .4 2.8 1 .7.8 1 1.8 1 3.1v6.3h-2v-5.6c0-1.9-.8-2.8-2.4-2.8-.7 0-1.3.2-1.9.7a3 3 0 0 0-.8 2.2Zm18 4.1c-1 1-2.3 1.5-3.9 1.5-1.5 0-2.8-.5-3.8-1.5a5 5 0 0 1-1.5-3.7 5.2 5.2 0 0 1 5.4-5.3 5.2 5.2 0 0 1 5.3 5.3 5 5 0 0 1-1.5 3.7Zm-6.2-1.3c.6.6 1.4.9 2.3.9a3 3 0 0 0 2.3-1 3 3 0 0 0 1-2.3c0-1-.4-1.8-1-2.4a3 3 0 0 0-2.3-1 3 3 0 0 0-2.3 1c-.6.6-.9 1.4-.9 2.4s.3 1.8 1 2.4Zm18.7 1.3c-1 1-2.3 1.5-3.9 1.5-1.5 0-2.8-.5-3.8-1.5a5 5 0 0 1-1.5-3.7 5.2 5.2 0 0 1 5.4-5.3 5.2 5.2 0 0 1 5.3 5.3 5 5 0 0 1-1.5 3.7Zm-6.2-1.3a3 3 0 0 0 2.3.9 3 3 0 0 0 2.3-1 3 3 0 0 0 1-2.3c0-1-.4-1.8-1-2.4a3 3 0 0 0-2.3-1 3 3 0 0 0-2.3 1c-.6.6-.9 1.4-.9 2.4s.3 1.8 1 2.4Zm11.9 2.7h-2.2V21h2.2v14.2Zm16.1-1.4c-1 1-2.3 1.5-3.8 1.5a5.3 5.3 0 1 1 0-10.5c1.5 0 2.8.5 3.8 1.5a5 5 0 0 1 1.5 3.8 5 5 0 0 1-1.5 3.7Zm-6.1-1.3a3 3 0 0 0 2.3.9 3 3 0 0 0 2.3-1c.6-.5.9-1.4.9-2.3a3 3 0 0 0-1-2.4 3 3 0 0 0-2.2-1 3 3 0 0 0-2.3 1c-.6.6-1 1.4-1 2.4s.4 1.8 1 2.4Zm11.8-8.4v.9h2.7v1.7h-2.7v8.5h-2.1v-8.5h-1.3V25h1.3v-.8c0-1 .3-2 1-2.6.6-.6 1.4-.9 2.3-.9.9 0 1.7.3 2.5 1l-1 1.5c-.3-.4-.8-.6-1.2-.6-.5 0-.8.1-1 .4-.4.3-.5.7-.5 1.2Zm14.7-.5c-.6 0-1.2 0-1.6.4-.4.2-.6.6-.6 1.2 0 .5.2 1 .6 1.2.4.3 1.3.6 2.7 1 1.4.3 2.4.7 3.1 1.3.7.6 1 1.5 1 2.7 0 1.2-.4 2.1-1.2 2.8a5 5 0 0 1-3.5 1.1c-2.1 0-4-.7-5.6-2.1l1.4-1.7a6.4 6.4 0 0 0 4.2 1.7c.8 0 1.3-.1 1.8-.4.4-.3.6-.8.6-1.3s-.2-1-.6-1.2c-.4-.3-1.1-.5-2-.8l-2.3-.6-1.4-.8c-.8-.6-1.2-1.5-1.2-2.7 0-1.3.5-2.2 1.4-3 .9-.6 2-1 3.3-1a8 8 0 0 1 4.8 1.7l-1.2 1.7c-.4-.4-1-.7-1.6-.9l-2-.3ZM179 35.3c-1.4 0-2.6-.5-3.7-1.4a5 5 0 0 1-1.5-3.8 5 5 0 0 1 1.6-3.8c1-1 2.4-1.5 4-1.5 1.5 0 2.7.6 3.8 1.6L182 28a4 4 0 0 0-2.6-1.2c-1 0-1.7.3-2.3 1a3 3 0 0 0-1 2.2 3 3 0 0 0 1 2.4c.6.7 1.4 1 2.3 1 1 0 1.9-.5 2.7-1.3l1.3 1.4a5.9 5.9 0 0 1-4.3 1.8Zm6.3-12.3c-.3-.3-.4-.6-.4-1s.1-.7.4-1c.2-.2.6-.4 1-.4.3 0 .6.2.9.4.3.3.4.6.4 1s-.1.7-.4 1c-.3.2-.6.4-1 .4-.3 0-.7-.2-1-.4Zm2 12.2H185V25h2.2v10.2Zm12.2-4.2h-8c0 .8.4 1.4 1 1.8.6.5 1.4.7 2.2.7 1.2 0 2.2-.4 2.9-1.2l1.2 1.3a5.7 5.7 0 0 1-4.3 1.7c-1.4 0-2.6-.4-3.6-1.4a5 5 0 0 1-1.6-3.8 5 5 0 0 1 1.6-3.8c1-1 2.2-1.5 3.6-1.5s2.6.5 3.5 1.3c1 .8 1.5 2 1.5 3.4V31Zm-8-1.7h5.9c0-.8-.3-1.5-.9-2a3 3 0 0 0-2-.6 3 3 0 0 0-2 .7c-.7.5-1 1.1-1 2Zm12.1.4v5.5h-2.1V25h2.1v1.8c.4-.6.8-1 1.4-1.4.6-.4 1.3-.6 2-.6 1.2 0 2 .4 2.8 1 .7.8 1 1.8 1 3.1v6.3h-2v-5.6c0-1.9-.9-2.8-2.4-2.8a3 3 0 0 0-2 .7 3 3 0 0 0-.8 2.2Zm14.4 5.6c-1.4 0-2.7-.5-3.7-1.4a5 5 0 0 1-1.5-3.8 5 5 0 0 1 1.6-3.8 5.7 5.7 0 0 1 7.8.1l-1.3 1.6a4 4 0 0 0-2.6-1.2c-1 0-1.7.3-2.4 1a3 3 0 0 0-1 2.2c0 1 .4 1.8 1 2.4.7.7 1.5 1 2.4 1 1 0 1.9-.5 2.7-1.3l1.3 1.4a5.9 5.9 0 0 1-4.3 1.8Zm15.6-4.3h-8c0 .8.4 1.4 1 1.8.6.5 1.4.7 2.2.7 1.3 0 2.2-.4 2.9-1.2l1.2 1.3a5.7 5.7 0 0 1-4.3 1.7c-1.4 0-2.6-.4-3.6-1.4a5 5 0 0 1-1.5-3.8 5 5 0 0 1 1.5-3.8c1-1 2.2-1.5 3.6-1.5s2.6.5 3.6 1.3 1.4 2 1.4 3.4V31Zm-8-1.7h5.9c0-.8-.3-1.5-.8-2a3 3 0 0 0-2-.6c-.8 0-1.5.2-2.1.7-.7.5-1 1.1-1 2ZM79 54.4h-2V53c-.9 1-2 1.5-3.4 1.5-1.1 0-2-.3-2.7-1a3 3 0 0 1-1-2.3 3 3 0 0 1 1-2.3c.8-.5 1.8-.7 3.1-.7h2.8v-.4c0-1.3-.8-2-2.3-2-1 0-1.9.3-3 1l-.9-1.3c1.3-1 2.7-1.5 4.2-1.5 1.2 0 2.2.3 3 .9.7.6 1.1 1.6 1.1 2.9v6.5Zm-2.2-3.8v-.9h-2.5c-1.5 0-2.3.5-2.3 1.5 0 .5.2.8.6 1 .4.4 1 .5 1.6.5.7 0 1.3-.2 1.8-.6.5-.4.8-.9.8-1.6Zm6.1-1.8v5.5h-2.1V44.1h2V46c.4-.6 1-1.1 1.5-1.5.6-.3 1.3-.5 2-.5a4 4 0 0 1 2.8 1c.7.8 1 1.8 1 3v6.3H88v-5.6c0-1.8-.8-2.8-2.3-2.8a3 3 0 0 0-2 .8c-.5.5-.8 1.2-.8 2.1ZM93.1 53a5 5 0 0 1-1.4-3.8 5 5 0 0 1 5-5.2c1.4 0 2.4.6 3.3 1.7v-5.6h2.1v14.3H100v-1.6a4 4 0 0 1-3.5 1.7c-1.3 0-2.4-.5-3.4-1.5Zm.8-3.7a3.2 3.2 0 0 0 3.1 3.3c.8 0 1.6-.3 2.1-1 .6-.6 1-1.4 1-2.3 0-1-.4-1.8-1-2.5-.5-.6-1.3-1-2.1-1a3 3 0 0 0-2.2 1c-.6.7-1 1.5-1 2.5Zm18.1 5.1h-2.3V41h3.5l4 8.4 4-8.4h3.6v13.4h-2.3V43.9l-4.7 9.3h-1.2l-4.7-9.3v10.5Zm23.3 0h-2V53c-.8 1-2 1.5-3.4 1.5-1 0-1.9-.3-2.6-1a3 3 0 0 1-1-2.3 3 3 0 0 1 1-2.3c.8-.5 1.8-.7 3.1-.7h2.8v-.4c0-1.3-.8-2-2.3-2-1 0-2 .3-3 1l-.9-1.3c1.2-1 2.7-1.5 4.2-1.5 1.2 0 2.2.3 3 .9.7.6 1.1 1.6 1.1 2.9v6.5Zm-2.2-3.8v-.9h-2.4c-1.5 0-2.3.5-2.3 1.5 0 .5.2.8.6 1 .4.4.9.5 1.6.5.7 0 1.3-.2 1.8-.6.5-.4.7-.9.7-1.6Zm6.9-4.7V51c0 .5.2 1 .4 1.2.3.3.7.4 1.1.4.5 0 1-.2 1.3-.6l1 1.5c-.8.7-1.7 1-2.6 1-.9 0-1.7-.3-2.3-1-.7-.6-1-1.4-1-2.5v-5.1h-1.3v-1.7h1.3V41h2.2v3.2h2.6v1.7h-2.6Zm7.2 2.9v5.5H145V40.1h2.2V46c.3-.6.7-1.1 1.4-1.5a4 4 0 0 1 2-.5 4 4 0 0 1 2.8 1c.7.8 1 1.8 1 3v6.3h-2.1v-5.6c0-1.8-.8-2.8-2.4-2.8a3 3 0 0 0-1.9.8c-.6.5-.8 1.2-.8 2.1Zm18.9 1.4h-8c0 .7.4 1.3 1 1.8.7.4 1.4.7 2.2.7 1.3 0 2.3-.4 3-1.2l1.2 1.3a5.7 5.7 0 0 1-4.3 1.7c-1.5 0-2.7-.5-3.7-1.4a5 5 0 0 1-1.5-3.8 5 5 0 0 1 5.1-5.3c1.4 0 2.6.4 3.6 1.3 1 .8 1.4 2 1.4 3.4v1.5Zm-8-1.7h5.9c0-.9-.3-1.5-.8-2-.6-.5-1.2-.7-2-.7s-1.5.3-2.1.7c-.7.5-1 1.2-1 2Zm12.2.3v5.5H168V44.1h2.2V46c.3-.6.7-1.1 1.3-1.5a4 4 0 0 1 2-.5c1.6 0 2.8.7 3.3 2 1-1.3 2.3-2 3.8-2 1.2 0 2 .3 2.8 1 .7.8 1 1.8 1 3v6.3h-2.1v-5.6c0-1.8-.8-2.8-2.3-2.8-.8 0-1.4.3-2 .7-.5.5-.8 1.2-.8 2v5.8h-2.1v-5.6c0-1-.2-1.7-.6-2.2a2 2 0 0 0-1.6-.7c-.7 0-1.4.3-2 .8-.5.5-.7 1.2-.7 2.1Zm24.7 5.6h-2V53c-.8 1-2 1.5-3.3 1.5-1 0-2-.3-2.6-1a3 3 0 0 1-1-2.3c0-1 .3-1.8 1-2.3.8-.5 1.8-.7 3-.7h2.8v-.4c0-1.3-.8-2-2.3-2-.9 0-1.9.3-3 1l-.9-1.3c1.3-1 2.7-1.5 4.2-1.5 1.2 0 2.2.3 3 .9.8.6 1.1 1.6 1.1 2.9v6.5Zm-2.1-3.8v-.9h-2.4c-1.6 0-2.3.5-2.3 1.5 0 .5.2.8.5 1 .4.4 1 .5 1.6.5a3 3 0 0 0 1.8-.6c.5-.4.8-.9.8-1.6Zm6.9-4.7V51c0 .5.1 1 .4 1.2.2.3.6.4 1 .4.5 0 1-.2 1.4-.6l.9 1.5c-.8.7-1.6 1-2.5 1-1 0-1.7-.3-2.4-1-.6-.6-1-1.4-1-2.5v-5.1h-1.2v-1.7h1.3V41h2.1v3.2h2.7v1.7h-2.7Zm5.5-3.8c-.3-.2-.4-.6-.4-1 0-.3.1-.6.4-.9.2-.3.6-.4 1-.4.3 0 .6.1.9.4.3.3.4.6.4 1 0 .3-.1.7-.4 1-.3.2-.6.3-1 .3-.3 0-.7-.1-1-.4Zm2 12.3h-2.2V44h2.2v10.3Zm7.2.1c-1.4 0-2.6-.5-3.6-1.4a5 5 0 0 1-1.5-3.8 5 5 0 0 1 1.6-3.8c1-1 2.3-1.5 3.9-1.5 1.5 0 2.8.5 3.9 1.6l-1.3 1.5a4 4 0 0 0-2.7-1.1c-.9 0-1.6.3-2.3.9a3 3 0 0 0-1 2.3c0 1 .3 1.7 1 2.4.6.6 1.4 1 2.4 1s1.8-.5 2.7-1.3l1.2 1.3a6 6 0 0 1-4.3 2v-.1Zm13.8-3.2c0 1-.4 1.8-1.1 2.3a4 4 0 0 1-2.7 1 7 7 0 0 1-2.3-.5 7 7 0 0 1-2.1-1.1l1-1.7c1.2.9 2.3 1.3 3.5 1.3.4 0 .8 0 1.1-.3.3-.2.4-.5.4-.9 0-.5-.7-1-2-1.3l-.2-.1c-2.2-.6-3.2-1.6-3.2-2.9 0-1 .4-1.7 1.1-2.3a5 5 0 0 1 2.9-.8 6 6 0 0 1 3.3 1l-.8 1.6a5 5 0 0 0-2.7-.8c-.5 0-1 0-1.3.3-.3.2-.4.4-.4.8 0 .3.1.6.5.7l1 .4c.4 0 .7.2 1 .3a7.8 7.8 0 0 1 2 .8c.6.5 1 1.2 1 2.2ZM18.6 28a8.1 8.1 0 1 1 16.1 0 8.1 8.1 0 0 1-16.1 0Z"/>
    <path d="M26.8 0c-2 1.5-3.7 3.3-5 5.2a22 22 0 0 0-3.6 7 2.5 2.5 0 0 1-2.5 2.3h-.2l-1.6-.1A23.2 23.2 0 0 0 .4 18.8a24.3 24.3 0 0 0 8.9 11.8c1.2.5 1.9 1.8 1.5 3a33 33 0 0 0-1.6 9.7c0 2.1.2 4.3.9 6.4 2.5-.1 5-.6 7.4-1.3 2.7-.9 5.2-2.1 7.2-3.8.5-.5 1.2-.7 1.9-.7.5 0 1 .1 1.4.4 2.3 1.6 4.9 3.1 7.7 4.1 2.2.8 4.6 1.3 7 1.4a27.4 27.4 0 0 0-.4-15.7 2.5 2.5 0 0 1 1-3.4A22.2 22.2 0 0 0 52.9 19a28.3 28.3 0 0 0-6.7-3.5c-2.4-.8-4.8-1.2-7.1-1.2H38c-1.2 0-2.2-.7-2.5-1.8A23.4 23.4 0 0 0 26.8 0m0 3.5a21 21 0 0 1 6.1 9.7 5.2 5.2 0 0 0 5 3.8h1.2c2 0 4 .4 6.2 1a40 40 0 0 1 4.2 2 19.4 19.4 0 0 1-7.6 8.4 5.2 5.2 0 0 0-2 6.8 22 22 0 0 1 .7 11.7 20 20 0 0 1-4-1c-2.3-.8-4.7-2-7-3.8a5.2 5.2 0 0 0-6.6.5c-1.8 1.4-4 2.5-6.3 3.3l-4.5 1-.3-3.6c0-2.7.5-5.7 1.5-8.8.8-2.5-.4-5.1-2.7-6.2a19.2 19.2 0 0 1-7-8.4A22.5 22.5 0 0 1 14 17h1.9a5 5 0 0 0 5-4.3 19.4 19.4 0 0 1 6-9.3" opacity=".8"/>
  </g>
  <defs>
    <clipPath id="a">
      <path fill="#fff" d="M0 0h235v55H0z"/>
    </clipPath>
  </defs>
</svg>
